External Loads File
version=1
nRows=38
nColumns=13
Range=5.000000e-03-10 seconds
endheader
time 	forceRightX 	forceRightY 	forceRightZ 	pointRightX 	pointRightY 	pointRightZ 	forceLeftX 	forceLeftY 	forceLeftZ 	pointLeftX 	pointLeftY 	pointLeftZ 		
2.505000 97.536887 -135.103082 -0.000000 0.094621 0.321488 -0.095438 -239.260178 888.345426 -0.000000 0.361211 0.325427 -0.340645
2.510000 94.850020 -132.318846 -0.000000 0.095147 0.326424 -0.095442 -231.219460 894.015143 -0.000000 0.361354 0.320065 -0.340599
2.515000 91.903084 -129.658741 -0.000000 0.094729 0.331322 -0.096573 -224.847045 898.467435 -0.000000 0.361434 0.315112 -0.340569
2.520000 88.189217 -127.439811 -0.000000 0.095495 0.336381 -0.096615 -217.309804 902.337225 -0.000000 0.361434 0.309969 -0.340477
2.525000 83.953687 -125.428536 -0.000000 0.096392 0.341293 -0.096740 -210.721339 905.027988 -0.000000 0.361314 0.304944 -0.340439
2.530000 78.963248 -123.703377 -0.000000 0.097535 0.346330 -0.096782 -203.538892 906.841080 -0.000000 0.361062 0.299892 -0.340484
2.535000 73.271627 -122.127586 -0.000000 0.098718 0.351359 -0.096801 -195.916580 907.677266 -0.000000 0.360813 0.294728 -0.340739
2.540000 66.941265 -120.562906 -0.000000 0.100210 0.356362 -0.096864 -187.944356 907.509240 -0.000000 0.360221 0.289619 -0.340198
2.545000 60.057935 -118.875107 -0.000000 0.101675 0.361427 -0.096969 -179.877087 906.313823 -0.000000 0.359637 0.284598 -0.340118
2.550000 52.654358 -116.993702 -0.000000 0.103361 0.366389 -0.097064 -171.450288 904.141043 -0.000000 0.358938 0.279521 -0.340074
2.555000 44.790947 -114.871166 -0.000000 0.105158 0.371482 -0.097180 -162.521646 900.926312 -0.000000 0.358101 0.274599 -0.339964
2.560000 36.508018 -112.480226 -0.000000 0.107672 0.376326 -0.096827 -152.979538 896.519069 -0.000000 0.357201 0.269708 -0.339812
2.565000 27.816525 -109.809576 -0.000000 0.109584 0.381263 -0.097044 -142.758985 890.759592 -0.000000 0.356098 0.264733 -0.339789
2.570000 18.706246 -106.877818 -0.000000 0.111691 0.386249 -0.097168 -131.699363 883.569949 -0.000000 0.354838 0.259858 -0.339696
2.575000 9.283749 -103.700487 -0.000000 0.114028 0.391207 -0.097279 -120.489827 874.797962 -0.000000 0.353493 0.255187 -0.339597
2.580000 -0.519653 -100.313421 -0.000000 0.116646 0.396104 -0.097286 -108.131690 864.565337 -0.000000 0.352007 0.250348 -0.339525
2.585000 -10.478937 -96.726367 -0.000000 0.119387 0.400964 -0.097399 -95.626000 852.800471 -0.000000 0.350349 0.245611 -0.339481
2.590000 -20.399589 -92.974660 -0.000000 0.122209 0.405824 -0.097475 -83.019247 839.696717 -0.000000 0.348591 0.240957 -0.339401
2.595000 -30.091036 -89.076670 -0.000000 0.125284 0.410593 -0.097606 -69.728016 825.573790 -0.000000 0.346586 0.236301 -0.339368
2.600000 -39.245747 -85.060288 -0.000000 0.128354 0.415466 -0.097699 -55.999115 810.646306 -0.000000 0.344499 0.231628 -0.339348
2.605000 -47.522861 -80.972829 -0.000000 0.131523 0.420260 -0.097854 -42.451093 795.070953 -0.000000 0.342301 0.227118 -0.339286
2.610000 -54.808896 -76.732590 -0.000000 0.134790 0.425180 -0.097975 -27.862492 779.083266 -0.000000 0.339813 0.222527 -0.339223
2.615000 -60.713956 -72.450889 -0.000000 0.138065 0.429793 -0.098178 -14.601078 762.781349 -0.000000 0.337265 0.218228 -0.339192
2.620000 -65.309379 -67.949103 -0.000000 0.141431 0.434417 -0.098336 -1.402932 746.459339 -0.000000 0.334568 0.213957 -0.339152
2.625000 -68.613657 -63.120845 -0.000000 0.144882 0.439022 -0.098543 11.589508 730.336259 -0.000000 0.331665 0.209673 -0.339075
2.630000 -70.683608 -57.961310 -0.000000 0.148529 0.443404 -0.098687 23.701493 714.582923 -0.000000 0.328555 0.205671 -0.339148
2.635000 -71.715473 -52.462212 -0.000000 0.152188 0.447841 -0.098917 35.060331 699.273937 -0.000000 0.325412 0.201733 -0.339068
2.640000 -71.958956 -46.623588 -0.000000 0.156018 0.452177 -0.099066 46.185690 684.377042 -0.000000 0.322085 0.197787 -0.339036
2.645000 -71.643065 -40.456040 -0.000000 0.160687 0.456216 -0.098276 57.724790 669.789874 -0.000000 0.318617 0.194136 -0.338979
2.650000 -70.795232 -34.282596 -0.000000 0.164756 0.460088 -0.098553 67.500203 655.668035 -0.000000 0.315004 0.190551 -0.338885
2.655000 -69.634434 -28.082191 -0.000000 0.168838 0.463778 -0.098960 76.652993 641.922823 -0.000000 0.311259 0.187104 -0.338871
2.660000 -68.293431 -21.934598 -0.000000 0.172956 0.467521 -0.099189 85.432729 628.465157 -0.000000 0.307385 0.183920 -0.338744
2.665000 -66.903465 -15.839551 -0.000000 0.177203 0.471051 -0.099045 94.665499 615.028964 -0.000000 0.303283 0.180259 -0.338711
2.670000 -65.525718 -9.988589 -0.000000 0.181439 0.474482 -0.099653 102.959472 601.612283 -0.000000 0.299131 0.177309 -0.338594
2.675000 -64.274435 -4.252473 -0.000000 0.185816 0.477684 -0.099765 111.267499 587.820765 -0.000000 0.294837 0.174440 -0.338491
2.680000 -63.209161 1.447856 -0.000000 0.190368 0.480673 -0.099845 119.459071 573.360302 -0.000000 0.290469 0.171772 -0.338384
2.685000 -62.379587 7.255057 -0.000000 0.194984 0.483479 -0.099956 127.381212 557.911264 -0.000000 0.285959 0.169413 -0.338294
2.690000 -61.812561 13.390928 -0.000000 0.199684 0.486124 -0.099999 135.020435 541.153495 -0.000000 0.281377 0.167016 -0.338150
